<?xml version="1.0" standalone="no"?>
<!DOCTYPE svg PUBLIC "-//W3C//DTD SVG 20010904//EN"
 "http://www.w3.org/TR/2001/REC-SVG-20010904/DTD/svg10.dtd">
<svg version="1.0" xmlns="http://www.w3.org/2000/svg"
 width="2368.000000pt" height="2368.000000pt" viewBox="0 0 2368.000000 2368.000000"
 preserveAspectRatio="xMidYMid meet">
<metadata>
Created by potrace 1.11, written by Peter Selinger 2001-2013
</metadata>
<g transform="translate(0.000000,2368.000000) scale(0.100000,-0.100000)"
fill="#000000" stroke="none">
<path d="M7205 15452 c-165 -56 -271 -198 -282 -377 -5 -95 -4 -175 3 -186 3
-5 1 -9 -5 -9 -7 0 -7 -8 -2 -22 5 -13 5 -31 2 -42 -4 -10 -4 -40 -1 -66 3
-25 3 -58 -1 -72 -4 -14 -3 -31 1 -38 4 -7 4 -25 0 -40 -4 -15 -4 -33 0 -40 4
-7 4 -25 0 -40 -4 -15 -4 -33 0 -40 4 -7 4 -25 0 -40 -4 -15 -4 -33 0 -40 4
-7 4 -25 0 -40 -4 -15 -4 -33 0 -40 4 -7 4 -25 0 -40 -4 -15 -4 -33 0 -40 4
-7 4 -25 0 -40 -4 -15 -4 -33 0 -40 4 -7 5 -24 1 -39 -4 -14 -6 -35 -5 -46 9
-71 10 -95 4 -95 -4 0 -4 -17 -1 -37 4 -21 4 -49 1 -63 -3 -13 -3 -46 0 -72 4
-27 3 -48 -2 -48 -4 0 -4 -10 1 -22 5 -13 6 -31 2 -40 -3 -9 -4 -54 -1 -99 3
-44 1 -83 -3 -86 -4 -3 -3 -11 4 -19 7 -9 8 -14 1 -14 -7 0 -8 -10 -3 -27 4
-16 5 -39 1 -53 -3 -13 -3 -46 0 -72 4 -27 3 -48 -2 -48 -4 0 -3 -11 2 -24 5
-13 6 -26 3 -29 -5 -6 -6 -118 0 -174 2 -18 -1 -33 -6 -33 -4 0 -6 -4 -3 -8 5
-9 6 -21 7 -137 1 -82 1 -96 0 -127 -2 -63 -3 -84 -2 -98 1 -8 1 -26 0 -40 0
-14 0 -32 0 -40 1 -8 1 -26 0 -40 0 -14 0 -32 0 -40 1 -8 1 -26 0 -40 0 -14 0
-32 0 -40 1 -8 1 -26 0 -40 0 -14 0 -32 0 -40 1 -8 1 -26 0 -40 0 -14 0 -32 0
-40 1 -8 1 -26 0 -40 -1 -28 -1 -55 0 -85 1 -11 2 -58 2 -104 0 -46 2 -88 5
-92 2 -4 0 -11 -6 -14 -8 -5 -7 -11 1 -21 7 -9 8 -14 1 -14 -7 0 -8 -10 -3
-27 4 -16 5 -39 1 -53 -3 -13 -3 -46 0 -73 4 -26 3 -50 -1 -53 -4 -2 -4 -17 0
-32 4 -15 5 -38 1 -52 -4 -14 -3 -35 1 -47 5 -14 5 -23 -1 -23 -6 0 -6 -9 -1
-22 5 -13 6 -31 2 -40 -3 -9 -4 -54 -1 -99 3 -44 1 -83 -3 -86 -4 -3 -3 -11 4
-19 7 -9 8 -14 1 -14 -7 0 -8 -10 -3 -27 4 -16 5 -39 1 -53 -3 -13 -3 -46 0
-72 4 -27 3 -48 -2 -48 -4 0 -3 -11 2 -24 5 -13 6 -26 3 -29 -5 -6 -6 -118 0
-174 2 -18 0 -33 -4 -33 -3 0 -3 -17 0 -37 4 -21 4 -49 1 -63 -3 -13 -3 -46 0
-72 4 -27 3 -48 -2 -48 -4 0 -4 -10 1 -22 5 -13 6 -31 2 -40 -3 -9 -4 -54 -1
-99 3 -44 1 -83 -3 -86 -4 -3 -3 -11 4 -19 7 -9 8 -14 1 -14 -7 0 -8 -10 -3
-27 4 -16 5 -39 1 -53 -3 -13 -3 -46 0 -72 4 -27 3 -48 -2 -48 -4 0 -3 -11 2
-24 5 -13 6 -26 3 -29 -5 -6 -6 -118 0 -174 2 -18 0 -33 -4 -33 -3 0 -3 -17 0
-37 4 -21 4 -49 1 -63 -3 -13 -3 -46 0 -73 4 -26 3 -50 -2 -53 -5 -3 -6 -9 -3
-14 9 -14 12 -80 5 -80 -4 0 -4 -17 -1 -37 4 -21 4 -49 1 -63 -3 -13 -3 -46 0
-72 4 -27 3 -48 -2 -48 -4 0 -4 -10 1 -22 5 -13 6 -31 2 -40 -3 -9 -4 -54 -1
-99 3 -44 1 -83 -3 -86 -4 -3 -3 -11 4 -19 7 -9 8 -14 1 -14 -7 0 -8 -10 -3
-27 4 -16 5 -39 1 -53 -3 -13 -3 -46 0 -72 4 -27 3 -48 -2 -48 -4 0 -3 -11 2
-24 5 -13 6 -27 3 -30 -6 -6 -5 -114 2 -185 27 -268 318 -436 560 -322 35 16
71 36 80 43 49 42 75 69 75 78 0 6 3 10 8 10 11 0 38 55 71 140 7 20 7 6620 0
6640 -3 8 -9 29 -13 45 -13 48 -84 147 -136 187 -26 20 -71 47 -101 59 -72 29
-195 34 -264 11z"/>
<path d="M15415 15463 c-29 -8 -118 -46 -134 -58 -42 -30 -113 -109 -132 -147
-49 -96 -47 32 -47 -2855 -1 -1495 -1 -2722 -2 -2727 0 -5 -14 9 -30 30 -17
22 -36 46 -43 54 -7 8 -68 87 -137 175 -69 88 -130 167 -137 175 -34 42 -151
191 -173 220 -14 18 -30 38 -35 44 -6 6 -42 52 -79 101 -38 50 -72 92 -75 95
-4 3 -18 21 -31 40 -13 19 -27 37 -30 40 -3 3 -46 57 -95 120 -49 63 -94 120
-100 127 -15 18 -26 32 -80 103 -28 36 -52 67 -55 70 -3 3 -35 43 -70 90 -36
47 -68 87 -71 90 -3 3 -39 48 -79 100 -40 52 -92 118 -114 146 -23 28 -52 65
-66 84 -27 36 -333 425 -355 452 -7 9 -44 56 -81 105 -37 48 -71 90 -74 93 -3
3 -28 34 -55 70 -46 59 -118 152 -150 191 -7 10 -37 48 -67 85 -29 38 -58 76
-65 84 -150 188 -223 282 -223 286 0 3 -9 15 -21 27 -11 12 -39 47 -62 77 -36
47 -142 182 -180 230 -41 51 -269 341 -301 384 -22 28 -58 74 -80 102 -23 28
-52 66 -66 84 -14 18 -30 38 -35 44 -6 6 -40 49 -75 96 -36 47 -68 87 -71 90
-3 3 -36 46 -74 95 -38 50 -74 95 -80 102 -5 7 -15 18 -20 25 -54 68 -122 156
-132 168 -15 19 -101 129 -130 167 -12 15 -30 38 -40 50 -38 45 -49 59 -82
106 -19 26 -38 47 -43 47 -4 0 -8 5 -8 10 0 6 -35 54 -78 108 -43 53 -102 128
-132 166 -76 99 -80 104 -129 158 -63 69 -129 115 -205 142 -59 22 -80 24
-198 22 -73 -2 -148 -6 -165 -10 -111 -24 -258 -171 -279 -279 -2 -10 -6 -28
-10 -39 -6 -20 -8 -6559 -1 -6588 12 -55 44 -128 74 -167 49 -64 79 -88 153
-125 60 -30 73 -33 160 -32 86 0 101 3 161 32 103 49 167 119 214 232 18 44
19 135 21 2855 1 1546 2 2812 3 2814 1 2 33 -36 71 -85 39 -49 76 -96 83 -104
7 -8 22 -29 34 -46 13 -17 34 -44 47 -60 14 -16 111 -139 215 -274 105 -135
202 -258 215 -275 14 -16 68 -86 122 -155 136 -175 142 -183 156 -200 7 -8 35
-44 63 -80 27 -36 54 -70 60 -76 5 -6 17 -22 25 -34 8 -12 22 -30 30 -40 8
-10 22 -27 30 -37 26 -32 223 -284 265 -338 22 -29 87 -113 145 -186 57 -74
108 -138 112 -144 4 -5 20 -26 36 -45 15 -19 61 -78 102 -130 41 -52 78 -99
82 -105 35 -43 201 -255 278 -356 52 -67 100 -127 105 -133 13 -15 61 -77 120
-156 27 -36 52 -67 55 -70 3 -3 28 -34 55 -70 62 -80 85 -108 108 -132 9 -10
17 -22 17 -27 0 -4 14 -22 30 -39 17 -18 30 -36 30 -41 0 -5 4 -11 8 -13 4 -1
42 -48 85 -103 43 -55 83 -107 90 -115 7 -8 44 -55 82 -105 38 -49 72 -92 75
-95 3 -3 16 -19 28 -37 13 -18 32 -42 42 -55 11 -13 50 -61 86 -108 105 -134
198 -254 227 -290 7 -8 28 -35 47 -60 19 -25 38 -46 42 -48 5 -2 8 -10 8 -17
0 -7 3 -15 8 -17 6 -2 31 -33 99 -118 27 -35 140 -180 163 -210 14 -18 31 -39
38 -46 6 -7 12 -15 12 -18 0 -3 8 -14 18 -25 9 -10 28 -33 42 -52 14 -18 46
-60 73 -93 26 -34 55 -71 65 -83 9 -13 25 -33 36 -45 10 -13 37 -48 60 -78 22
-30 43 -57 46 -60 3 -3 30 -36 60 -75 290 -374 354 -437 495 -490 49 -19 77
-22 155 -21 113 3 139 9 203 44 83 45 149 133 176 237 13 47 11 6622 -2 6668
-34 125 -161 256 -277 283 -35 9 -161 14 -185 7z"/>
<path d="M18250 15466 c-3 -2 -17 -7 -31 -9 -127 -23 -263 -169 -296 -317 -8
-34 -8 -6567 0 -6603 11 -54 30 -102 55 -142 26 -41 104 -125 117 -125 4 0 20
-9 35 -20 73 -52 233 -62 333 -21 16 6 30 11 33 11 9 0 69 45 105 80 35 33
105 140 93 140 -4 0 -2 6 4 13 6 7 14 33 18 58 4 24 7 402 8 839 l1 795 774
774 c723 723 775 773 788 755 29 -40 58 -78 68 -88 9 -9 149 -183 178 -221 15
-20 49 -61 73 -87 13 -15 24 -32 24 -37 0 -5 4 -11 9 -13 6 -2 66 -75 158
-193 40 -51 99 -121 106 -123 4 -2 7 -8 7 -13 0 -5 8 -17 18 -27 9 -10 31 -35
47 -56 17 -22 41 -53 55 -70 14 -17 32 -39 40 -50 8 -10 30 -36 48 -56 17 -21
32 -40 32 -43 0 -4 12 -20 28 -36 15 -16 32 -36 37 -43 42 -54 122 -155 130
-164 19 -22 47 -57 163 -203 63 -80 122 -153 129 -161 8 -8 48 -58 89 -110 42
-52 83 -104 92 -115 10 -11 35 -43 57 -70 22 -28 43 -51 47 -53 5 -2 8 -8 8
-14 0 -6 8 -18 18 -27 9 -9 33 -36 52 -61 44 -58 60 -77 85 -106 11 -12 29
-35 40 -50 11 -16 27 -35 35 -44 8 -9 28 -34 44 -55 17 -22 33 -42 36 -45 3
-3 21 -25 40 -50 19 -25 40 -51 48 -58 7 -8 25 -30 40 -50 15 -21 32 -42 37
-48 6 -6 24 -29 40 -50 17 -21 38 -46 48 -56 9 -10 17 -20 17 -23 0 -4 24 -34
55 -69 6 -6 64 -78 129 -161 66 -82 123 -151 128 -153 4 -2 8 -8 8 -13 0 -5 8
-17 18 -27 9 -10 31 -36 47 -57 155 -201 229 -247 392 -241 71 2 91 7 157 40
42 20 76 41 76 47 0 5 6 9 13 9 18 1 84 91 114 157 47 102 39 249 -19 358 -24
46 -193 264 -215 278 -7 4 -13 14 -13 22 0 7 -4 15 -8 17 -7 2 -54 58 -159
188 -33 42 -87 107 -101 125 -10 11 -46 56 -82 100 -35 44 -68 82 -72 83 -5 2
-8 8 -8 13 0 5 -8 17 -17 27 -10 10 -29 32 -43 50 -14 18 -33 43 -44 55 -10
12 -53 65 -95 117 -42 52 -78 97 -81 100 -3 3 -23 28 -44 55 -22 28 -47 57
-55 66 -9 9 -25 29 -36 44 -11 16 -25 33 -30 39 -6 6 -28 33 -50 61 -22 27
-44 55 -50 61 -5 6 -23 28 -40 49 -58 73 -267 330 -291 357 -13 15 -24 30 -24
33 0 3 -10 16 -22 29 -13 13 -30 32 -38 42 -83 104 -275 343 -318 394 -29 36
-59 72 -65 80 -7 8 -50 62 -97 120 -46 58 -89 111 -95 118 -5 7 -17 21 -26 30
-8 9 -31 37 -51 62 -77 97 -311 385 -317 390 -4 3 -18 21 -31 40 -21 30 -38
51 -85 104 -26 30 -75 96 -75 101 0 3 130 135 290 293 436 432 1907 1893 2106
2091 183 182 232 241 249 304 2 4 3 8 4 10 12 14 18 150 9 187 -12 46 -34 99
-53 130 -27 42 -115 130 -131 130 -6 0 -17 6 -23 14 -6 7 -40 21 -76 31 -120
32 -238 6 -350 -76 -27 -20 -192 -182 -365 -359 -173 -178 -353 -363 -400
-410 -225 -230 -718 -736 -805 -825 -53 -55 -229 -235 -390 -400 -161 -165
-356 -365 -434 -445 -78 -80 -259 -266 -404 -414 -447 -458 -891 -913 -1164
-1194 -98 -100 -180 -182 -183 -182 -3 0 -6 890 -6 1978 -1 1087 -4 1994 -8
2015 -9 58 -62 154 -115 207 -76 76 -162 114 -276 119 -39 1 -72 0 -75 -3z"/>
<path d="M349 15416 c-2 -3 -17 -7 -33 -10 -52 -9 -130 -54 -176 -100 -69 -70
-74 -77 -119 -196 -3 -8 -7 -1483 -8 -3278 -3 -2950 -2 -3270 13 -3325 17 -69
61 -145 113 -195 107 -105 278 -139 414 -84 16 7 32 12 36 12 5 0 14 7 21 15
7 8 15 13 19 10 4 -2 14 5 21 16 8 10 19 19 25 19 20 1 98 114 121 175 4 11
10 27 13 35 4 11 12 1643 11 2249 0 18 4 22 20 18 11 -3 20 -2 20 2 0 4 17 6
38 3 20 -2 42 -3 47 -3 6 0 93 0 195 1 102 1 190 1 195 0 6 -1 12 -2 15 -1 8
2 454 3 465 1 6 -1 12 -2 15 -1 8 2 454 3 465 1 6 -1 15 -2 20 -1 6 0 136 3
290 6 154 2 294 7 310 9 17 2 59 7 95 11 36 4 76 8 90 10 14 2 50 6 80 10 30
4 59 9 63 12 4 2 22 6 40 9 18 2 57 9 87 15 30 7 64 13 75 15 11 1 21 3 23 4
1 2 5 3 10 4 4 1 13 5 20 9 6 5 12 6 12 3 0 -3 23 2 52 10 28 9 59 17 67 19 9
2 63 20 121 40 58 20 110 37 115 39 6 2 23 8 38 14 16 7 30 12 32 12 5 0 172
77 197 91 10 5 46 24 80 42 88 47 239 141 265 166 12 12 27 21 32 21 5 0 16 6
24 14 7 8 43 38 78 67 170 140 322 314 454 520 23 36 53 94 51 100 0 4 6 15
16 25 13 15 42 71 53 104 1 3 6 16 12 30 46 107 89 236 108 323 2 10 7 27 10
37 17 52 47 249 40 260 -4 6 -3 10 2 10 4 0 9 17 10 38 5 81 5 469 0 507 -3
22 -8 65 -12 95 -7 60 -60 325 -65 325 -1 0 -3 7 -5 15 -13 58 -70 210 -113
300 -14 30 -26 57 -26 60 -1 3 -13 26 -29 52 -15 26 -27 49 -27 53 0 3 -5 11
-10 18 -6 7 -29 41 -52 77 -22 36 -78 110 -123 165 -110 132 -187 206 -365
349 -9 7 -24 15 -33 19 -9 3 -17 11 -17 17 0 5 -5 10 -11 10 -6 0 -25 11 -43
25 -18 14 -36 25 -39 25 -4 0 -30 15 -59 33 -77 48 -255 137 -262 130 -3 -4
-6 -1 -6 5 0 7 -7 12 -15 12 -8 0 -23 4 -33 9 -23 12 -60 26 -102 41 -19 7
-44 16 -55 21 -19 8 -222 67 -255 74 -8 2 -49 11 -90 20 -41 9 -84 18 -95 20
-11 1 -33 5 -50 8 -59 11 -183 28 -236 33 -30 3 -74 7 -99 11 -52 7 -2684 16
-2691 9z m2436 -750 c66 -3 152 -8 190 -12 39 -3 76 -6 83 -7 6 0 12 -4 12 -8
0 -5 6 -6 14 -3 14 5 91 -7 204 -31 12 -3 33 -7 46 -10 47 -10 198 -56 234
-71 20 -9 45 -17 55 -19 30 -6 287 -138 287 -147 0 -4 4 -8 10 -8 27 0 310
-242 310 -265 0 -3 8 -14 18 -24 51 -57 114 -156 160 -251 40 -84 96 -242 105
-297 3 -15 8 -39 11 -53 20 -86 30 -200 30 -355 -1 -180 -11 -262 -58 -447
-29 -111 -132 -323 -201 -413 -9 -11 -29 -38 -46 -60 -32 -41 -146 -165 -153
-165 -2 0 -23 -18 -47 -41 -24 -22 -87 -69 -139 -104 -94 -63 -290 -171 -290
-160 0 3 -10 -1 -23 -9 -65 -43 -431 -142 -597 -161 -30 -4 -71 -9 -90 -11
-19 -2 -77 -6 -128 -8 -51 -3 -96 -8 -101 -11 -5 -3 -13 -1 -16 5 -4 6 -12 7
-18 3 -7 -5 -48 -7 -92 -6 -100 4 -90 4 -157 0 -32 -1 -58 1 -58 6 0 4 -8 4
-17 0 -22 -10 -133 -10 -150 0 -6 4 -14 4 -16 0 -6 -10 -99 -9 -115 1 -7 4
-12 4 -12 -1 0 -4 -53 -7 -117 -6 -147 3 -128 3 -193 0 -30 -1 -61 1 -67 6 -7
5 -13 6 -13 1 0 -11 -91 -11 -108 0 -7 4 -12 4 -12 -1 0 -10 -91 -10 -108 1
-7 4 -12 4 -12 -1 0 -10 -91 -10 -108 1 -7 4 -12 4 -12 -1 0 -10 -91 -10 -108
1 -7 4 -12 4 -12 -1 0 -10 -91 -10 -108 1 -7 4 -12 4 -12 -1 0 -10 -91 -10
-108 1 -7 4 -12 4 -12 -1 0 -10 -71 -10 -88 1 -9 6 -12 354 -12 1576 l0 1569
28 3 c46 5 1810 0 1937 -6z"/>
</g>
</svg>
