<svg version="1" xmlns="http://www.w3.org/2000/svg" width="3114.667" height="3114.667" viewBox="0 0 2336.000000 2336.000000"><path d="M204.7 846.6c-.1.1-2.7.4-5.7.8-12.6 1.3-24.5 4.3-39 9.8-5 1.9-16.2 7.7-18.1 9.4-.8.8-1.9 1.4-2.3 1.4-1.9 0-18.2 13.4-23.5 19.4-1.4 1.6-3.7 4.1-5 5.5-4.1 4.5-14.2 20.3-17.6 27.8-3.3 7-8 20.4-8.9 25.3-.3 1.4-.8 3.6-1.1 5-.3 1.4-.8 4-1.1 5.9-.3 1.9-1 4.5-1.5 5.8-.5 1.3-1.1 3.8-1.4 5.6-.3 1.8-1.1 5-1.6 7.2-.6 2.2-1.2 4.7-1.4 5.5-.2.8-.8 3.5-1.5 6s-1.3 5.2-1.5 6.1c-.2.8-1 4.4-1.9 8-.9 3.5-1.8 7.3-2.1 8.4-.2 1.1-1.3 5.7-2.4 10.3-1.2 4.5-2.3 9.5-2.6 11-.3 1.5-1.4 6.1-2.5 10.2-1.2 4.1-2.2 8.4-2.4 9.5-.2 1.1-.9 4-1.5 6.5s-1.4 5.6-1.7 7c-.2 1.4-.7 3.3-1 4.2-.3.9-.7 2.5-.9 3.5-.2 1-2.3 9.4-4.5 18.8-2.3 9.3-4.3 17.7-4.5 18.5-.2.8-1.3 5.3-2.5 10-1.1 4.7-2.3 9.4-2.5 10.5-1.4 6.3-1.7 7.5-1.7 8.2 0 .5-.4 1.8-.9 3.1-.8 2.1-1.2 3.7-2.5 10.2-.3 1.4-.8 3.4-1.1 4.5-.4 1.1-.8 2.5-.9 3.2-.1.7-.9 4-1.8 7.5-.8 3.5-3.1 13-5.1 21.3-2 8.2-6.1 25.1-9.1 37.4-3 12.3-5.6 23.4-5.8 24.7-.3 1.3-.7 2.8-1 3.3-.4.5-.8 2.2-1 3.8-.2 1.5-1.4 6.6-2.5 11.3-2.8 10.8-2.7 10.6-4.1 16.5-.6 2.7-1.4 5.9-1.7 7-.3 1.1-.7 4.7-.9 8-.4 9.2 3.6 16.1 12 20.7 4 2.2 4.9 2.3 39.5 2.5 19.5.2 35.6.5 35.9.8.3.2.6 2.1.8 4.2.6 6.3 4.6 23.3 5.5 23.3.5 0 .9-.8 1-1.8 0-.9.2-2.6.4-3.7s.6-3.9 1-6.1c.3-2.3 1.9-6.3 3.6-9 3-4.9 9.5-11.4 11.3-11.4.5 0 1.7-.6 2.5-1.4 2.1-1.8 10.9-3.4 16.3-3l4.4.4-.1-14.8c0-8.1.3-17 .8-19.9 2.3-16.7 7.4-32.8 14.6-46.8 5.1-9.8 13.9-23.5 15.2-23.5.4 0 1-.8 1.3-1.8.3-.9 3.9-5.1 8.1-9.2 10-10.1 12.2-12 18-16 2.8-1.9 5.2-3.8 5.5-4.1 1-1.1 14.6-8.7 21-11.6 12.1-5.5 29.4-10.4 43-12 5.4-.6 27.1-.6 32 0 1.9.3 5.1.8 7 1.1 1.9.4 4.6.8 6 1 1.4.2 3.2.6 4 .9.8.3 4 1.2 7 2 11.5 3.2 23 8.2 35.5 15.5 8.6 4.9 33.5 26.2 33.5 28.5 0 .4.8 1.5 1.8 2.5 6.7 7 20.2 28.8 20.2 32.6 0 .8.4 1.6.8 1.8 1.5.6 9 23.7 9.7 29.8.2 1.4.5 3.5.9 4.8 3 12.5 2.3 36.6-1.5 53.2-.6 2.5-1.3 5.6-1.5 6.9-.3 1.3-1 3.4-1.6 4.5-.6 1.2-1 2.1-.8 2.1 1 0-6.5 18.7-9 22.5-.6.8-1.4 2.4-1.9 3.6-3.9 9-19.9 28.9-31.1 38.8-8.8 7.7-28.5 20.6-31.6 20.6-.8 0-1.4.4-1.4 1 0 .5-.8 1-1.8 1s-2.2.4-2.8.9c-.5.4-3.1 1.6-5.9 2.6-2.7.9-5.9 2.1-7 2.6-3.4 1.4-18.2 4.8-24.8 5.6-7.2.9-33.1.9-39.7-.1-19.9-2.8-42.2-11.2-58.4-22.1l-6.9-4.7-6.3 3.3c-6.3 3.1-9.7 4.1-14.2 4-6.7-.2-12 5.1-12.9 12.9-.2 1.9-.8 5.5-1.4 7.9-1 4.2-.9 4.6 1.8 6.8 1.5 1.3 4 3.1 5.6 4 1.5 1 2.7 2.1 2.7 2.5 0 .4.4.8 1 .8.5 0 4.4 2.3 8.7 5.1 16.5 10.8 44.3 21.8 63.8 25.3 1.7.3 4.1.8 5.5 1.1 9.7 2 45.6 2.8 54 1.3 1.9-.4 5.5-.9 8-1.3 7.5-1 21-4.4 30.5-7.6 21-7.1 38.5-16.8 60-33.1 6.7-5.1 24.7-23.9 31.3-32.8 7-9.3 18-27.1 17.4-27.9-.2-.2 0-.7.5-1 .9-.6 2.4-3.6 6.3-12.6 2.4-5.4 8.8-24.4 9.4-27.9.2-1.1.8-3.9 1.4-6.1 1.3-5.1 2.3-11.4 2.3-14.2-.1-2.1.4-2.2 9.7-2.5 5.3-.2 12.1-.2 15 0 4.6.3 5.2.6 5.2 2.5.1 2.2 3 16.6 4.9 24.2 7.4 29.1 26.1 61.3 49.1 84.5 6.4 6.5 10.1 9.7 22.4 19.7 1 .8 4.6 3.3 8 5.4 3.4 2.1 6.6 4.2 7.1 4.7 1.6 1.3 25.6 12.9 30.5 14.7 5.4 2 10.5 3.7 18 5.8 5.1 1.5 7 1.9 14 3.2 1.4.3 3.6.7 5 1 7.5 1.5 12.3 1.8 30.5 1.9 17.6 0 26.4-.5 31.5-1.9.8-.3 3.3-.7 5.5-1.1 13.7-2 41.9-12 53.5-18.9 1.9-1.1 5.2-2.9 7.2-4 3.7-1.9 17-11.2 24.4-17 6.7-5.3 21.9-20.8 28.1-28.7 11.3-14.3 20.8-30.5 28.6-48.8 2.6-5.9 6.9-20.1 9.3-30.5 1.3-5.3 1.4-5.9 2-11 .3-2.8.8-5.1.9-5.3.1-.2 15.7-.3 34.6-.4 21.9 0 34.9-.4 35.7-1 .6-.6 1.2-.8 1.2-.4 0 1.2 7.5-3.2 10.2-6.1 5-5.2 7.1-13.6 5.3-21.1-.3-1.2-.7-3.1-1-4.3-.2-1.1-2.2-9.4-4.4-18.2-2.2-8.9-4.2-17.3-4.5-18.7-.3-1.4-1.1-5-1.9-8-1.3-5.1-4.2-17.2-5.2-21.6-.2-1-1.9-8.2-3.9-15.9-1.9-7.7-4.4-17.8-5.5-22.5-1.1-4.7-3.9-16.2-6.1-25.5-5-20.5-4.9-20.1-5.4-22.3-.2-.9-.9-3.5-1.5-5.7s-1.2-4.9-1.4-6c-.5-2.7-1.6-7.2-2.7-11.5-1-3.8-8.9-36.3-9.5-39.3-.2-1-.7-2.7-1-3.7-.7-2.1-1.4-5.3-2.1-9.4-.3-1.6-1-4-1.5-5.3-.5-1.4-.7-2.9-.3-3.4.3-.5.1-.9-.3-.9-.5 0-1-.8-1.1-1.8-.3-2.9-.8-5.6-1.6-7.9-.4-1.2-.9-3.2-1.2-4.5-.3-1.3-.6-2.8-.8-3.3-.2-.6-.7-2.8-1.1-5-.5-2.2-1-4.2-1-4.5-.1-.3-.5-1.6-.8-3-.5-2-2.3-9-5.1-20.5-.1-.6-.9-3.7-1.6-7-.8-3.3-1.4-6.2-1.5-6.5-.9-2.9-5.4-21.9-6.1-25.4-.2-1-.8-3.3-1.3-5-.5-1.7-1.5-5.8-2.1-9.1-4.4-23.6-18.6-48.8-37-66.1-8.1-7.5-11.4-10.4-12.2-10.4-.3 0-1.3-.6-2-1.3-5.3-5.1-31.1-17.1-41.3-19.2-1.1-.3-4-.9-6.5-1.5-12.4-2.8-18.8-3.4-32.5-3.5-9.9 0-12.6.3-15.5 1.9-16.7 9.1-18 31.7-2.4 41.6 4.7 2.9 7.4 3.5 22.4 4.5 11.2.8 25.3 3.4 28.5 5.4.6.3 1.3.6 1.8.7.4.1.9.3 1.2.4.3.1.8.3 1.3.4 1.7.4 12 6.1 16.2 8.9 12.7 8.7 26.9 28.9 29.5 42 .2.9.6 2.1 1 2.6.3.5.7 2.2.9 3.8.3 1.5.7 3.9 1 5.2 1.2 5.2 6.7 27.8 7.5 31.1 1.3 4.6 3.1 11.9 3.6 14.7 1 4.8 1.4 6.5 2.1 8.6.4 1.2.8 3.1 1 4.2.2 1.1 1.5 6.7 2.9 12.5 1.5 5.8 2.8 11.2 3 12 .2.8 1 4.2 1.8 7.5.9 3.3 1.8 7.1 2.1 8.5.3 1.4 1.5 6.3 2.6 11s2.3 9.4 2.5 10.6c.3 1.1 3 12.1 6.1 24.5 3 12.3 5.7 23.3 5.8 24.4.2 1.1.9 4 1.6 6.5.6 2.5 1.4 5.3 1.6 6.2.8 3.8 1.3 5.6 3.4 14.3 1.2 4.9 2.4 9.8 2.6 10.9.2 1 1.3 5.6 2.4 10.1 1.1 4.5 2.3 9.1 2.5 10.1.2 1.1.9 3.9 1.6 6.4.6 2.5 1.2 5.2 1.4 6 1.3 6.1 9.8 40.6 10.1 41.1.2.3.6 1.9.8 3.5.8 4.1 1.2 5.8 3.5 15.4 1.2 4.7 2.1 9 2.1 9.6 0 .9-4.6 1.2-16.2 1-13.7-.1-16.3-.3-16.4-1.6-.1-.8-.3-1.7-.4-2-.1-.3-.3-2.2-.6-4.2-.5-4.4-6-26.3-7.3-29.3-.5-1.1-1.4-3.6-2.1-5.5-1.8-5.2-3.8-9.5-8.8-19.5-2.4-5-5-10-5.6-11.2-.6-1.3-1.4-2.3-1.8-2.3-.5 0-.8-.7-.8-1.5s-.4-1.5-1-1.5c-.5 0-1-.5-1-1.1 0-2.3-15-21-24.4-30.4-11.2-11.2-15.9-15.3-23.2-20.5-2.7-1.9-5-3.8-5.2-4.2-1.1-2.6-10.1 2.2-16.1 8.7-6.6 7.2-9.7 14.3-10.7 25.2l-.5 5.8 5.9 4.3c7.8 5.7 20.7 18.6 27.6 27.5 18.5 24.2 29.9 56.9 29.6 84.9 0 5.3 0 6.6.1 8 .1 1.6-.8 11-1.6 16.3-1.5 9.6-6.5 28-8.5 31-.3.5-1.3 2.9-2 5.3s-1.7 4.5-2.2 4.8c-.5.3-1.5 2.2-2.4 4.2-1.8 4.4-13.1 21.3-17.4 26.2-6.9 7.7-13 13.8-16.6 16.6-2.1 1.6-4.5 3.6-5.4 4.4-3.3 3-13.7 9.6-21.8 13.8-13.6 7.1-30.9 12.7-46.5 15-14.5 2.2-39.2.8-55.2-3.2-7.4-1.8-20.3-6.5-23-8.3-1.1-.7-2.5-1.3-3.2-1.3-.8 0-4.3-1.8-7.9-4-3.6-2.2-6.9-4-7.3-4-.4 0-1.6-.8-2.7-1.8-1-1-4.1-3.3-6.9-5.2-5.6-3.9-20.1-17.9-26.3-25.6-11.2-13.8-25.3-42.7-26.8-54.9-.1-1.1-.3-2-.4-2-1.1 0-4.4-27.2-4.2-34 .2-5.4 1.3-17.5 1.7-19.5.5-2.5 1.1-5.4 2-10.9.3-1.7.9-4 1.4-5.3.5-1.3.9-2.5.9-2.8 0-.3.3-1.2.6-2 .2-.8 1-3.3 1.7-5.5s2.5-6.7 4-10l2.7-5.9-4.9-1.3c-14-3.6-23.4-15.1-24.4-29.9-.2-2.3-.8-5.2-1.5-6.5-1.2-2.2-1.3-2.2-2.7-.3-5.9 8-19.7 38.4-21.7 47.9-.1.5-1.2 5.3-2.4 10.5s-2.5 11.5-2.9 14l-.9 4.5-14.1.3c-15.7.3-14.6.8-15.8-6.8-.5-3-2.3-12.3-3-15.5-.1-.6-.4-1.7-.8-2.5-.3-.8-1.1-3.8-1.8-6.5-.6-2.8-1.5-5.5-1.9-6-.3-.6-1.7-4.3-3-8.3-1.4-3.9-2.8-7.2-3.2-7.2-.5 0-.8-.6-.8-1.4 0-.8-2.1-5.4-4.6-10.3-14.3-27.2-32.8-48.6-59.1-68.1-3.9-2.9-7.3-5.2-7.6-5.2-.3 0-2.3-1.2-4.4-2.6-4.4-3.1-25.3-13.5-25.3-12.7 0 .3-.6.1-1.2-.5-2.5-2-24.2-8.9-33.3-10.6-1.6-.3-4.1-.7-5.5-1-2.9-.5-11-1.7-16-2.2-4.8-.5-32.8-.5-36.5.1-1.6.2-5.5.7-8.5 1-5.5.6-25.1 4.9-28 6.2-.8.3-2.3.8-3.2.9-3.9.8-21 8.1-30.8 13.2-9.6 4.9-26 15.8-33.5 22.2-5.8 4.9-22.2 21.6-26.1 26.5-2.1 2.7-4.3 5.5-4.9 6.2-.5.7-1.5 1.8-2 2.5-1.7 2.1-9.1 14-11.1 17.8-1.1 1.9-2.2 3.6-2.6 3.8-.5.2-.8 1.2-.8 2.3 0 1-.4 1.9-.9 1.9s-1.1.8-1.4 1.7c-.3 1-2.4 6.3-4.8 11.8-4.2 10.1-11.3 32.5-10.5 33.3.3.2 0 1.6-.6 3.1-.5 1.4-1.1 4.2-1.3 6.1-.1 1.9-.3 4.2-.4 5.1-.1 1.5-2.1 1.7-16.6 1.7-9.1 0-16.5-.2-16.5-.6.1-.9 2.8-13 3.6-15.7.3-1.1 1-3.8 1.4-6 1.4-6 1.8-7.7 2.9-11.3.5-1.7.8-3.2.6-3.2-.3 0 0-1.1.5-2.5s1.2-3.6 1.4-4.8c.8-4.1 6.6-28.2 7.7-32.2.6-2.2 1.4-5.4 1.6-7 .3-1.7.9-3.5 1.4-4.1.5-.6.6-1.4.3-1.7-.4-.3-.3-1.4.1-2.4.5-1 .9-2.4 1.1-3.2.1-.7.8-3.4 1.4-6 .6-2.5 1.2-5.5 1.5-6.6.2-1.1 1.1-4.7 1.9-8 3.1-12.1 8.6-34.6 9-36.8.2-1.2 1-4.2 1.7-6.7s1.2-4.8 1.1-5.2c-.1-.4.3-1.9.8-3.3s1.3-4 1.6-5.8c.6-3.4.7-3.7 1.7-7.7 1.4-5 12.7-52.2 13.1-54.3.3-1.2.5-2.2.6-2.2.2 0 .5-1.4 1.3-5.5.3-1.4 1.5-6.3 2.7-11 2.4-9.2 2.8-11.2 3.6-15 .3-1.4 1.3-5.7 2.4-9.5 1-3.9 2.1-8.4 2.4-10 .3-1.7 1.2-5.5 1.9-8.5.8-3 2.7-10.7 4.2-16.9 1.5-6.3 3.9-14.2 5.3-17.5 7.4-17.2 22.1-32.9 37.2-39.6 1.4-.6 3.8-1.7 5.5-2.5 3.7-1.6 12.1-4.3 15.5-4.9 1.4-.3 2.5-.5 2.5-.6 0-.3 6-.9 14.5-1.4 14-.9 18.8-1.6 20.1-3.2.6-.8 1.7-1.4 2.3-1.4 2.2 0 7.7-6.6 9.5-11.6 4.7-12.5-1.2-25.7-13.8-30.7-3.3-1.4-6.8-1.7-14.2-1.6-5.5.2-10 .4-10.2.5zM1514 955.2c0 3.1-3.1 12.4-5.7 17.4-2.5 4.7-9.9 14.3-12.4 16.2-1 .7-2.4 1.8-3.1 2.5-4.4 3.9-16.2 9.5-23.9 11.2-3.5.7-5.8 1.4-5.1 1.4 1.9.1 1.8.1 8.7 2.1 15.2 4.3 29 15.6 35.8 29.2 3.2 6.4 6.4 16.9 5.9 19-.1.5.3.8.9.8.5 0 .9-.8.8-1.8-.1-.9.3-3.7 1-6.2 4.4-16.7 17.8-32.5 32.1-38 1.9-.7 4-1.7 4.5-2.1.6-.4 2.9-1 5.3-1.4 2.4-.3 5.3-1 6.5-1.4 1.6-.6 1.1-.9-2.7-1.4-4.4-.6-17.5-5.3-18.6-6.6-.3-.3-1.8-1.3-3.3-2.2-4.9-2.7-13.8-12.2-17.7-18.9-3.7-6.3-8.4-20.2-7.2-21.4.3-.3 0-.6-.6-.6-.7 0-1.2 1-1.2 2.2z"/><path d="M736.5 1042.5c-.8 6.4-4.5 17.8-7.5 22.7-1.1 1.8-2.3 4-2.7 4.8-.8 1.8-6 8.6-8.8 11.5-3.6 3.7-12.3 10.5-13.4 10.5-.6 0-1.1.4-1.1.8 0 .8-5 3.3-12.5 6.3-4.1 1.7-4.1 1.7-11.7 3.1-3.8.6-6.8 1.6-6.8 2.1 0 .4.5.5 1 .2 1.5-.9 11.5 1.3 19 4.2 22.7 9 39.9 29.9 44 53.6.7 3.7 1.4 6.7 1.5 6.5.2-.2.5-2.1.8-4.3.2-2.2.7-4.8 1.1-5.7.4-.9.9-2.2 1-3 1.5-6.4 2-7.8 2.9-7.8.6 0 .8-.3.4-.6-.5-.6 4.6-10.7 6.7-13.1.6-.7 2.7-3.2 4.6-5.6 5-6.2 14.2-13.3 22.9-17.7 7.4-3.6 18.8-7 22.4-6.4.9.1 1.7-.1 1.7-.6 0-.8-4.9-2-8.2-2.1-3.5-.1-18.5-6.6-24.3-10.6-7-4.8-11.6-9.1-16.6-15.3-3.9-5-9.8-14.9-10.4-17.7-.2-1-1.2-3.8-2.1-6.3-.9-2.5-1.8-6.7-2-9.4-.3-2.8-.6-5.1-.8-5.3-.2-.2-.7 2.1-1.1 5.2zM632.5 1114.9c-1.1.5-2.3.7-2.7.5-.4-.3-.9 0-1.3.6-.3.5-1.3 1-2.1 1-2 0-23.6 9.1-23 9.7.3.3 1.8.7 3.3.9 17 1.9 28.9 13.6 30.1 29.5l.4 6.6 6.9-2.3c12.7-4.3 27.9-6.6 43.7-6.7 6.1 0 11.2-.5 11.2-1 0-1.9-11.4-11.8-16.3-14.1-5.7-2.7-9.4-3.6-17.4-4.1-6.4-.4-8.5-1-14-3.7-6.6-3.3-12.7-9.9-14.7-16.1-.6-1.9-1.1-2-4.1-.8zM560.9 1121.1c-.2 4.9-3.8 14.2-7.3 19.4-2.9 4.2-11.8 12.5-12.8 11.9-.4-.3-.8-.1-.8.4 0 1.1-9 4.9-13.8 5.8-3.9.8-3.6 1.4.9 2.1 5.8.9 15.8 6.5 21.2 11.8 5.7 5.7 10 13.3 11.8 20.8.7 3 1.5 4.4 1.9 3.6.5-.7.6-1.8.3-2.6-.3-.7-.1-1.9.5-2.6.5-.6 1.2-2.4 1.6-4 .9-4 6.9-12.8 11-16.5 5.3-4.6 11.8-8.1 18.8-10.1l6.3-1.8-4-.7c-5.5-1-13.9-4.9-18.7-8.7-5.9-4.7-13.4-15.7-14.4-21.2-.1-.4-.2-.8-.4-1-.1-.1-.4-1.8-.7-3.7-.5-3.7-1.3-5.3-1.4-2.9zM1506.3 1123.1c-5.2 2.6-9.7 8-10.9 13.4-.6 2.4-.9 68.9-.9 168.5 0 138.3.3 165.1 1.4 168 1.9 4.6 8.1 10.5 12.7 12 9.1 3 19.8-1.6 24.3-10.5l2.3-4.8v-165.6c-.1-91.1-.3-166.3-.5-167.1-3.3-12.7-17.1-19.5-28.4-13.9zM1917.5 1122.7c-4.7 1.9-8 5.3-10.4 10.5-1.7 3.5-1.8 12.6-1.7 141.4l.1 137.5-3.3-3.8c-2.8-3.2-7.3-9-19.5-24.7-1.2-1.5-2.7-3.3-3.2-4-.6-.6-2.4-2.9-4-5.1-1.6-2.2-3.6-4.7-4.5-5.6-.8-.9-2.4-2.9-3.5-4.4-1.1-1.6-4-5.4-6.5-8.5-2.5-3.1-5.6-7.2-7-9-1.4-1.8-7.2-9.2-13-16.5-5.8-7.3-13-16.5-16-20.5s-6-7.7-6.5-8.4c-1.4-1.5-19.4-24.5-22-28-1.1-1.5-2.9-3.8-4-5.1-1.1-1.2-5.6-6.9-10-12.6-4.4-5.6-11.6-14.8-16-20.4-4.4-5.7-11.6-14.9-16-20.5s-8.7-11.1-9.5-12.1c-.8-1-2.5-3.1-3.7-4.6-1.2-1.5-5.9-7.6-10.5-13.4-4.5-5.8-9.4-12.1-10.8-13.9-2.2-2.9-10-12.9-13.3-17-.7-.8-2.8-3.5-4.7-6-1.9-2.5-3.7-4.7-4-5-.3-.3-2.4-3-4.7-6.1-8.9-11.6-13.7-14.5-24.8-14.8-12.3-.4-21.2 5.5-23.3 15.4-.3 1.1-.5 76.7-.5 168 0 178-.3 167.2 4.8 173.5 10.2 12.7 31 7.2 34.2-8.9.8-4.3.9-18.3 0-18.8-.4-.2-.4-.9-.1-1.5 1-1.5 1.1-29.9.1-30.5-.4-.2-.4-.9-.1-1.5.4-.6.7-52.5.7-115.4 0-128.9-.9-116.6 8.2-104.4 2.7 3.6 7.6 9.9 11 14.1 3.3 4.1 6.9 8.8 8 10.3 1.1 1.6 2.5 3.3 3 4 .6.6 11.6 14.6 24.4 31.1 12.9 16.5 26.3 33.6 29.7 38 3.5 4.4 6.7 8.4 7.1 9 .5.5 1.9 2.4 3.3 4.1 1.4 1.7 3.6 4.5 5 6.4 1.4 1.8 6.2 8 10.8 13.7 4.5 5.7 8.2 10.8 8.2 11.3 0 .6.4 1 .8 1 .5 0 2.4 2.1 4.2 4.7 1.9 2.7 3.7 5 4 5.3.3.3 2.1 2.5 4 5s4 5.2 4.7 6c.7.8 2.6 3.3 4.3 5.5 1.7 2.2 4.1 5.3 5.4 7 2.5 3.2 18.3 23.2 21.6 27.5 1.1 1.4 5.8 7.4 10.5 13.3s8.5 11 8.5 11.3c0 .3 1.2 1.7 2.6 3.2 1.4 1.5 4.4 5.2 6.7 8.3 2.3 3.1 7.1 9.3 10.7 13.9 3.6 4.5 7 8.9 7.5 9.8.6.9 1.7 2.3 2.6 3.2.8.8 3.3 3.7 5.5 6.5 5 6.4 7.9 9 13 11.4 3.3 1.6 11.3 2.8 13.4 2.1.3-.1 1.3-.3 2.2-.5 3.4-.6 8.7-4.7 11-8.3l2.3-3.7.3-166.5c.2-126 0-167.6-.9-170.8-3-11-15.5-16.9-26.4-12.5zM2060 1122.1c-4.4 1.8-9 5.9-11.2 10.2l-2.1 4.2v166c0 130.5.2 166.8 1.2 169.8 2.6 7.8 9 12.8 17.4 13.5 6.4.5 11.2-1.3 15.7-5.8 6.2-6.2 6.3-6.9 6.3-52.1l.1-40.7 38.7-38.7 38.8-38.7 3 3.4c1.7 1.8 3.1 3.8 3.1 4.5 0 .6.4 1.3.9 1.5.8.2 9.7 11.1 21.6 26.3 1.7 2.1 3.5 4.3 4 4.9 1.9 2.1 6 7.2 8 10 1.1 1.6 2.6 3.4 3.3 4.2.8.8 4.3 5.1 7.9 9.7 3.5 4.5 7.3 9.1 8.2 10.3 1 1.1 5.3 6.5 9.6 12 4.4 5.4 8.2 10.1 8.5 10.4.3.3 2.1 2.5 4 5s4.2 5.4 5.2 6.5c1.6 1.8 40.5 50.4 44.6 55.8 4.1 5.2 10 10.3 13.2 11.2 6.6 1.9 16.2-1.1 20.8-6.5 6-6.9 6.6-17.8 1.5-25.3-2.6-3.9-12.2-15.9-21.1-26.5-2-2.4-4.3-5.4-5.1-6.5-.8-1.2-1.7-2.4-2.1-2.7-.5-.5-10.1-12.3-11.8-14.5-2.9-3.9-14.7-18.2-15.8-19.1-.8-.6-1.4-1.4-1.4-1.8 0-.4-3.3-4.6-7.2-9.4-4-4.8-8.7-10.5-10.5-12.7-11.2-14-14.6-18-15.4-18.3-.5-.2-.9-.8-.9-1.3 0-.8-1.6-3-4.5-6.3-.6-.6-3.9-4.7-7.5-9.1-3.6-4.4-6.9-8.5-7.5-9.1-.5-.6-2.3-2.8-4-4.9-1.6-2.1-7.7-9.6-13.5-16.7l-10.4-13 65.1-64.6c35.8-35.6 65.9-65.9 66.8-67.4 2.2-3.5 2.7-13.2.9-15.5-.7-1-1.4-2.4-1.4-3.2 0-.7-1.5-2.7-3.2-4.3-6.6-5.8-13.4-7.1-21.3-4-4.2 1.6-14.2 11.4-69 67.6-15.4 15.9-33.6 34.5-40.5 41.6-6.9 7-23.8 24.4-37.7 38.6-13.8 14.3-34.4 35.3-45.6 46.9l-20.5 21-.1-99.5c0-54.7-.2-100.4-.5-101.5-2.7-12.1-15.8-19.7-26.6-15.4zM1162.8 1124.3c-5.9 1.6-10.6 5.6-13.5 11.7-1.5 3.2-1.6 18-1.7 168.4l-.1 164.9 2.5 5.1c3.6 7.4 9.3 11.1 17.3 11.2 6.7.2 11-1.7 15.5-6.6 5.5-5.8 5.4-5.1 5.4-64 0-30 .1-55.4.3-56.5.4-2 1.2-2 52-2 28.3 0 51.5-.2 51.5-.5s1.5-.6 3.3-.6c1.7-.1 5.2-.4 7.7-.8s5.9-.9 7.5-1.1c6-.8 19.9-4.2 24.5-6 34.6-13.3 52.5-27.1 67.6-52 3-4.9 9.2-19.4 9.9-23.1.2-1 .4-2 .5-2.2.2-.1.3-.5.4-1 .3-1.3 1.5-7.6 2.3-11.7.9-5 .9-33.6 0-39-1.3-7.5-1.8-10-2.4-12-.4-1.1-.8-2.5-.9-3-1.8-7.8-10-24.4-15.7-32-9.7-12.7-25-25.3-39.7-32.3-8-3.9-23.4-9.5-29-10.6-1.4-.2-4.7-1-7.5-1.5-2.7-.6-7.2-1.4-10-1.6-7.5-.8-11.6-1.5-12.6-2.1-.5-.3-.9 0-.9.6s-.5.8-1.2.3c-1.8-1-128.8-1-133 0zm138.2 38c1.4.3 3.9.8 5.5 1.1 8 1.3 16.6 3.8 23.5 6.7 9.1 3.8 12 5.3 12 6.1 0 .5.5.8 1.1.8 2.3 0 12.1 8.7 18.1 15.9 4.8 5.8 10.7 18 12.2 25.3.3 1.3.9 4.3 1.4 6.8.9 4.9.8 25.6-.2 30.5-4.6 21.9-18.4 39.7-39.6 51.1-4.8 2.6-16.3 7.3-19.4 7.8-.6.1-2 .5-3.1.9-1.1.3-3.7.8-5.9 1.2-2.1.3-4.2.8-4.7 1.1-2.1 1.3-20.3 1.8-65.4 1.8l-48 .1-.1-79.3-.1-79.3 55.1.4c30.3.2 56.2.7 57.6 1zM126.1 1356.8c-1.5 5.7-6 15.2-7.2 15.2-.5 0-.9.5-.9 1.1 0 1.4-6.4 7.4-11 10.3-3.6 2.3-10.2 4.9-15.5 6.1-2.9.7-2.7.8 2.5 2.1 8.3 2.2 13.9 5.4 20.2 11.5 6.3 6.2 11.3 15.3 12.4 22.8l.7 4.6 1.3-5.7c.8-3.2 2.5-8.1 3.9-10.9 3.3-6.4 14.8-18 18.3-18.5.4 0 2.3-.8 4.2-1.6 1.9-.9 5-1.9 6.8-2.3 3.3-.7 4.6-2.6 1.5-2-1 .1-2.4-.2-3-.8-.7-.5-1.3-.6-1.3-.2 0 .4-.6.3-1.2-.3-.7-.6-1.5-1-1.8-.9-1.8.4-10.9-5.5-15.3-9.9-5.5-5.5-11.1-15.5-12-21.2-.8-4.8-1.1-4.7-2.6.6z"/></svg>